<svg width="262" height="122" viewBox="0 0 262 122" fill="none" xmlns="http://www.w3.org/2000/svg">
<path fill-rule="evenodd" clip-rule="evenodd" d="M47.0584 24.7227C45.9699 26.439 44.5941 27.8944 42.9409 29.0879C45.1088 30.2106 46.9929 31.7917 48.5879 33.8177C50.7252 36.5328 51.805 39.6201 51.805 43.04C51.805 46.032 51.0252 48.8084 49.4696 51.3446C47.9762 53.8131 45.9603 55.7701 43.4378 57.2034L43.4287 57.2085L43.4196 57.2135C42.1379 57.9126 40.7238 58.4295 39.1853 58.7714C37.6236 59.1185 35.6053 59.28 33.165 59.28H7.32497V1.2H31.885C35.5068 1.2 38.5183 1.74564 40.8317 2.93179C43.5193 4.30441 45.6129 6.21197 47.0708 8.65723C48.5775 11.0949 49.325 13.8194 49.325 16.8C49.325 19.6384 48.5684 22.2835 47.0653 24.7116L47.0584 24.7227ZM40.285 4C38.205 2.93333 35.405 2.4 31.885 2.4H8.52497V58.08H33.165C35.565 58.08 37.485 57.92 38.925 57.6C40.365 57.28 41.6716 56.8 42.845 56.16C45.1916 54.8267 47.0583 53.0133 48.445 50.72C49.885 48.3733 50.605 45.8133 50.605 43.04C50.605 39.8933 49.6183 37.0667 47.645 34.56C46.0038 32.4753 44.0491 30.907 41.7808 29.8552C41.3217 29.6423 40.8497 29.4506 40.365 29.28C40.8217 29.0364 41.26 28.7764 41.6801 28.5C43.4672 27.3239 44.9222 25.8506 46.045 24.08C47.4316 21.84 48.125 19.4133 48.125 16.8C48.125 14.0267 47.4316 11.52 46.045 9.28C44.7116 7.04 42.7916 5.28 40.285 4ZM61.1837 59.28V1.2H66.5437V53.92H105.344V58.4727L128.878 1.2H133.607L157.473 59.28H151.677L144.157 40.88H118.325L110.725 59.28H61.1837ZM117.522 39.68H144.962L152.482 58.08H155.682L132.802 2.4H129.682L106.802 58.08H109.922L117.522 39.68ZM65.3437 55.12V2.4H62.3837V58.08H104.144V55.12H65.3437ZM143.762 36.8L131.202 6.24L118.722 36.8H143.762ZM120.509 35.6H141.972L131.206 9.40537L120.509 35.6ZM205.586 40.72C205.393 43.9336 204.418 46.8936 202.661 49.6C200.741 52.5867 198.075 54.96 194.661 56.72C191.301 58.4267 187.541 59.28 183.381 59.28C179.328 59.28 175.568 58.2667 172.101 56.24C168.635 54.2133 165.888 51.4933 163.861 48.08C161.835 44.6133 160.821 40.8533 160.821 36.8V23.68C160.821 19.6267 161.808 15.8933 163.781 12.48C165.808 9.01333 168.528 6.26666 171.941 4.24C175.408 2.21333 179.168 1.2 183.221 1.2C187.328 1.2 191.061 2.08 194.421 3.84C197.835 5.54667 200.528 7.92 202.501 10.96C204.258 13.6186 205.233 16.552 205.426 19.76C205.449 20.1558 205.461 20.5558 205.461 20.96H202.581C202.528 17.76 201.648 14.88 199.941 12.32C198.235 9.76 195.915 7.76 192.981 6.32C190.101 4.88 186.848 4.16 183.221 4.16C179.701 4.16 176.448 5.04 173.461 6.8C170.475 8.56 168.101 10.9333 166.341 13.92C164.581 16.9067 163.701 20.16 163.701 23.68V36.8C163.701 40.32 164.581 43.5733 166.341 46.56C168.155 49.5467 170.555 51.92 173.541 53.68C176.581 55.44 179.861 56.32 183.381 56.32C187.008 56.32 190.288 55.6 193.221 54.16C196.155 52.72 198.448 50.72 200.101 48.16C201.808 45.6 202.688 42.72 202.741 39.52H205.621C205.621 39.9239 205.609 40.3239 205.586 40.72ZM174.146 52.6436C177.002 54.2962 180.073 55.12 183.381 55.12C186.845 55.12 189.941 54.4335 192.692 53.0828C195.445 51.7315 197.567 49.8728 199.093 47.509L199.098 47.5016L199.103 47.4944C200.676 45.1338 201.492 42.4797 201.541 39.5L201.561 38.32H206.821V39.52C206.821 43.427 205.77 47.0137 203.67 50.2506C201.627 53.4279 198.795 55.9385 195.211 57.7866L195.205 57.7899C191.659 59.5907 187.71 60.48 183.381 60.48C179.117 60.48 175.148 59.4111 171.496 57.276C167.855 55.1478 164.961 52.283 162.829 48.6926L162.825 48.6856C160.69 45.0334 159.621 41.0641 159.621 36.8V23.68C159.621 19.422 160.66 15.4806 162.742 11.8794L162.745 11.8744C164.873 8.23417 167.738 5.33997 171.329 3.20817L171.336 3.20402C174.988 1.06889 178.957 0 183.221 0C187.501 0 191.425 0.917914 194.968 2.77162C198.556 4.56767 201.412 7.07885 203.506 10.3032C205.61 13.4907 206.661 17.0537 206.661 20.96V22.16H201.401L201.381 20.98C201.332 18.0003 200.516 15.3462 198.943 12.9856C197.361 10.6129 195.208 8.74988 192.452 7.3972L192.445 7.39334C189.751 6.04663 186.685 5.36 183.221 5.36C179.912 5.36 176.87 6.18437 174.07 7.83385C171.259 9.49058 169.032 11.7178 167.375 14.5292C165.726 17.3283 164.901 20.3708 164.901 23.68V36.8C164.901 40.1062 165.724 43.1461 167.371 45.9431C169.081 48.7577 171.335 50.9864 174.146 52.6436ZM217.8 1.2V37.1873L253.864 1.2H261.424L236.808 25.7312L260.772 59.28H254.303L233.008 29.5292L217.8 44.7371V59.28H212.44V1.2H217.8ZM216.6 44.24L233.16 27.68L254.92 58.08H258.44L235.24 25.6L258.52 2.4H254.36L216.6 40.08V2.4H213.64V58.08H216.6V44.24ZM4.60497 64.4L18.045 114.56L26.445 83.44L21.325 64.4H54.365L39.405 120.08H36.285L27.965 89.12L19.645 120.08H16.525L1.56497 64.4H4.60497ZM27.965 93.7438L20.5651 121.28H15.6048L0 63.2H5.52577L18.0492 109.939L25.2022 83.4394L19.7597 63.2H55.9299L40.3251 121.28H35.3649L27.965 93.7438ZM25.165 67.36L29.485 83.44L37.885 114.56L50.525 67.36H25.165ZM26.7299 68.56L30.6435 83.1273L30.6439 83.1287L37.8804 109.938L48.9613 68.56H26.7299ZM56.9437 121.28V63.2H62.3037V89.52H96.8637V63.2H102.224V121.28H96.8637V94.88H62.3037V121.28H56.9437ZM61.1037 93.68H98.0637V120.08H101.024V64.4H98.0637V90.72H61.1037V64.4H58.1437V120.08H61.1037V93.68ZM150.482 63.2V68.56H133.842V115.92H150.482V121.28H112.002V115.92H128.562V68.56H112.002V63.2H150.482ZM129.762 67.36V117.12H113.202V120.08H149.282V117.12H132.642V67.36H149.282V64.4H113.202V67.36H129.762ZM206.501 63.2V68.56H185.461V121.28H180.181V68.56H159.141V63.2H206.501ZM181.381 67.36V120.08H184.261V67.36H205.301V64.4H160.341V67.36H181.381ZM214.04 63.2H255.64V68.56H219.4V88.72H250.92V94.08H219.4V115.92H255.64V121.28H214.04V63.2ZM218.2 117.12V92.88H249.72V89.92H218.2V67.36H254.44V64.4H215.24V120.08H254.44V117.12H218.2Z" fill="white"/>
<path fill-rule="evenodd" clip-rule="evenodd" d="M39.405 120.08H36.285L27.965 89.12L19.645 120.08H16.525L1.56497 64.4H4.60497L18.045 114.56L26.445 83.44L21.325 64.4H54.365L39.405 120.08ZM29.485 83.44L25.165 67.36H50.525L37.885 114.56L29.485 83.44Z" fill="white"/>
<path d="M61.1037 93.68V120.08H58.1437V64.4H61.1037V90.72H98.0637V64.4H101.024V120.08H98.0637V93.68H61.1037Z" fill="white"/>
<path d="M129.762 67.36H113.202V64.4H149.282V67.36H132.642V117.12H149.282V120.08H113.202V117.12H129.762V67.36Z" fill="white"/>
<path d="M181.381 67.36H160.341V64.4H205.301V67.36H184.261V120.08H181.381V67.36Z" fill="white"/>
<path d="M218.2 117.12H254.44V120.08H215.24V64.4H254.44V67.36H218.2V89.92H249.72V92.88H218.2V117.12Z" fill="white"/>
</svg>
