<svg width="52" height="31" viewBox="0 0 52 31" fill="none" xmlns="http://www.w3.org/2000/svg">
<path d="M16.7319 2.40482L16.7327 2.40521C17.909 3.00591 18.7958 3.82311 19.4104 4.85565L19.4104 4.85569L19.4149 4.86309C20.0567 5.89978 20.3801 7.0611 20.3801 8.35991C20.3801 9.57192 20.0602 10.6935 19.4164 11.7345C18.7718 12.75 17.8917 13.5577 16.7648 14.1587L15.7611 14.694L16.8341 15.0716C18.1805 15.5453 19.3165 16.3669 20.2472 17.5492C21.1655 18.7157 21.6201 20.0204 21.6201 21.4799C21.6201 22.775 21.2853 23.9644 20.6139 25.0584L20.6122 25.0612C19.9642 26.1329 19.0946 26.9785 17.9968 27.6031C17.4563 27.8974 16.849 28.1213 16.1716 28.2718C15.5023 28.4206 14.5833 28.4999 13.4001 28.4999H1.58008V1.65991H12.7601C14.4775 1.65991 15.7892 1.92139 16.7319 2.40482ZM20.2623 12.2677L20.2624 12.2677L20.2652 12.2631C21.0071 11.0647 21.3801 9.76035 21.3801 8.35991C21.3801 6.88692 21.0109 5.54282 20.2675 4.34046C19.549 3.13491 18.5166 2.1934 17.1879 1.51481C16.0506 0.931702 14.5625 0.659912 12.7601 0.659912H1.08008H0.580078V1.15991V28.9999V29.4999H1.08008H13.4001C14.6169 29.4999 15.6178 29.4193 16.3885 29.248C17.1496 29.0789 17.8477 28.8235 18.4795 28.4789L18.4795 28.4789L18.4871 28.4746C19.7337 27.7663 20.7292 26.7998 21.4671 25.5801C22.2352 24.3278 22.6201 22.9577 22.6201 21.4799C22.6201 19.7927 22.088 18.2708 21.0329 16.9306C20.208 15.8827 19.2277 15.0764 18.0946 14.5182C18.9716 13.9112 19.6959 13.1609 20.2623 12.2677ZM32.9323 29.1297L36.6095 15.4465L40.2866 29.1297L40.3861 29.4999H40.7695H42.3295H42.7128L42.8123 29.1297L50.2923 1.28965L50.4615 0.659912H49.8095H33.2895H32.6372L32.8066 1.28975L35.3316 10.6797L31.6512 24.3147L25.4124 1.03051L25.3131 0.659912H24.9295H23.4095H22.7574L22.9266 1.28965L30.4066 29.1297L30.5061 29.4999H30.8895H32.4495H32.8328L32.9323 29.1297ZM37.8522 10.5496L35.8615 3.13991H47.2379L41.5675 24.3142L37.8523 10.5502L37.8522 10.5496Z" fill="white" stroke="white"/>
</svg>
