<svg width="229" height="32" viewBox="0 0 229 32" fill="none" xmlns="http://www.w3.org/2000/svg">
<path d="M0.73207 10.985V0.545H1.31707L8.60707 7.64V0.545H9.16207V10.985H0.73207ZM14.7756 0.335C15.5556 0.335 16.2756 0.529999 16.9356 0.919999C17.5956 1.3 18.1156 1.82 18.4956 2.48C18.8856 3.14 19.0806 3.86 19.0806 4.64V6.92C19.0806 7.7 18.8856 8.42 18.4956 9.08C18.1156 9.74 17.5956 10.265 16.9356 10.655C16.2756 11.035 15.5556 11.225 14.7756 11.225C13.9956 11.225 13.2756 11.035 12.6156 10.655C11.9556 10.265 11.4306 9.74 11.0406 9.08C10.6606 8.42 10.4706 7.7 10.4706 6.92V4.64C10.4706 3.86 10.6606 3.14 11.0406 2.48C11.4306 1.82 11.9556 1.3 12.6156 0.919999C13.2756 0.529999 13.9956 0.335 14.7756 0.335ZM11.0256 6.92C11.0256 7.6 11.1906 8.23 11.5206 8.81C11.8606 9.38 12.3156 9.835 12.8856 10.175C13.4656 10.505 14.0956 10.67 14.7756 10.67C15.4556 10.67 16.0806 10.505 16.6506 10.175C17.2306 9.835 17.6856 9.38 18.0156 8.81C18.3556 8.23 18.5256 7.6 18.5256 6.92V4.64C18.5256 3.96 18.3556 3.335 18.0156 2.765C17.6856 2.185 17.2306 1.73 16.6506 1.4C16.0806 1.06 15.4556 0.89 14.7756 0.89C14.0956 0.89 13.4656 1.06 12.8856 1.4C12.3156 1.73 11.8606 2.185 11.5206 2.765C11.1906 3.335 11.0256 3.96 11.0256 4.64V6.92ZM28.9691 0.559999V1.115H25.0241V11H24.4841V1.115H20.5391V0.559999H28.9691ZM41.1111 0.559999H48.4611V1.115H41.6661V5.345H47.5761V5.9H41.6661V10.445H48.4611V11H41.1111V0.559999ZM50.6846 0.559999L54.6746 10.265L58.6646 0.559999H59.2496L54.9596 11H54.3746L50.0846 0.559999H50.6846ZM61.0682 0.559999H68.4182V1.115H61.6232V5.345H67.5332V5.9H61.6232V10.445H68.4182V11H61.0682V0.559999ZM76.9117 0.904999C77.5117 1.185 77.9817 1.6 78.3217 2.15C78.6717 2.7 78.8467 3.31 78.8467 3.98C78.8467 4.76 78.6067 5.46 78.1267 6.08C77.6567 6.69 77.0517 7.095 76.3117 7.295L78.9667 11H78.3067L75.7417 7.4L75.2617 7.415H71.4967V11H70.9417V0.559999H74.9167C75.3567 0.559999 75.7317 0.589999 76.0417 0.649999C76.3617 0.699999 76.6517 0.784999 76.9117 0.904999ZM75.4117 6.86C75.9317 6.86 76.4117 6.73 76.8517 6.47C77.2917 6.21 77.6417 5.86 77.9017 5.42C78.1617 4.98 78.2917 4.5 78.2917 3.98C78.2917 3.4 78.1367 2.875 77.8267 2.405C77.5267 1.935 77.1067 1.585 76.5667 1.355C76.1767 1.195 75.6267 1.115 74.9167 1.115H71.4967V6.86H75.4117ZM80.9352 0.559999L84.6402 6.14L88.3152 0.559999H88.9752L84.9102 6.725V11H84.3552V6.725L80.2752 0.559999H80.9352ZM98.8187 0.559999V1.115H94.8737V11H94.3337V1.115H90.3887V0.559999H98.8187ZM100.562 11V0.559999H101.117V5.495H108.047V0.559999H108.602V11H108.047V6.05H101.117V11H100.562ZM117.951 0.559999V1.115H114.831V10.445H117.951V11H111.186V10.445H114.291V1.115H111.186V0.559999H117.951ZM120.459 11V0.559999H121.044L128.334 7.64V0.559999H128.889V11H128.334V8.42L121.014 1.28V11H120.459ZM138.193 8.855C137.923 9.545 137.433 10.115 136.723 10.565C136.013 11.005 135.253 11.225 134.443 11.225C133.663 11.225 132.943 11.03 132.283 10.64C131.623 10.25 131.098 9.715 130.708 9.035C130.328 8.345 130.138 7.59 130.138 6.77V4.67C130.138 3.87 130.328 3.14 130.708 2.48C131.098 1.82 131.618 1.3 132.268 0.919999C132.928 0.529999 133.653 0.335 134.443 0.335C135.093 0.335 135.688 0.445 136.228 0.665C136.768 0.875 137.228 1.185 137.608 1.595C137.918 1.935 138.168 2.315 138.358 2.735C138.558 3.155 138.658 3.58 138.658 4.01H138.118C138.108 3.64 138.013 3.275 137.833 2.915C137.663 2.555 137.443 2.23 137.173 1.94C136.503 1.24 135.593 0.89 134.443 0.89C133.753 0.89 133.118 1.06 132.538 1.4C131.968 1.73 131.518 2.185 131.188 2.765C130.858 3.335 130.693 3.97 130.693 4.67V6.77C130.693 7.5 130.858 8.165 131.188 8.765C131.528 9.355 131.983 9.82 132.553 10.16C133.133 10.5 133.763 10.67 134.443 10.67C135.133 10.67 135.763 10.505 136.333 10.175C136.913 9.835 137.368 9.38 137.698 8.81C138.028 8.23 138.193 7.6 138.193 6.92V6.395H134.443V5.84H138.748V11H138.193V8.855ZM157.865 0.559999V1.115H154.745V10.445H157.865V11H151.1V10.445H154.205V1.115H151.1V0.559999H157.865ZM164.678 6.005C163.828 5.835 163.133 5.65 162.593 5.45C162.063 5.24 161.643 4.96 161.333 4.61C161.033 4.25 160.883 3.79 160.883 3.23C160.883 2.65 161.033 2.14 161.333 1.7C161.643 1.26 162.073 0.92 162.623 0.68C163.183 0.44 163.828 0.32 164.558 0.32C165.258 0.32 165.898 0.47 166.478 0.769999C167.068 1.06 167.533 1.47 167.873 2C168.213 2.53 168.383 3.135 168.383 3.815H167.828C167.828 3.225 167.683 2.705 167.393 2.255C167.103 1.805 166.708 1.46 166.208 1.22C165.708 0.969999 165.153 0.844999 164.543 0.844999C164.003 0.844999 163.498 0.929999 163.028 1.1C162.558 1.27 162.173 1.53 161.873 1.88C161.583 2.23 161.438 2.67 161.438 3.2C161.438 3.68 161.578 4.065 161.858 4.355C162.138 4.635 162.503 4.85 162.953 5C163.403 5.15 164.033 5.31 164.843 5.48C165.663 5.65 166.298 5.815 166.748 5.975C167.208 6.125 167.593 6.38 167.903 6.74C168.223 7.1 168.383 7.605 168.383 8.255C168.383 8.905 168.208 9.455 167.858 9.905C167.518 10.345 167.063 10.675 166.493 10.895C165.923 11.115 165.303 11.225 164.633 11.225C163.803 11.225 163.073 11.07 162.443 10.76C161.813 10.45 161.328 10.015 160.988 9.455C160.658 8.885 160.493 8.235 160.493 7.505H161.048C161.048 8.145 161.188 8.705 161.468 9.185C161.758 9.665 162.173 10.04 162.713 10.31C163.253 10.57 163.893 10.7 164.633 10.7C165.553 10.7 166.313 10.48 166.913 10.04C167.523 9.6 167.828 9 167.828 8.24C167.828 7.72 167.698 7.32 167.438 7.04C167.178 6.76 166.848 6.56 166.448 6.44C166.058 6.31 165.468 6.165 164.678 6.005ZM184.125 0.559999H184.71L189 11H188.4L186.99 7.55H181.845L180.42 11H179.835L184.125 0.559999ZM182.07 7.01H186.765L184.41 1.28L182.07 7.01ZM196.489 0.859999C196.959 1.1 197.319 1.43 197.569 1.85C197.829 2.27 197.959 2.74 197.959 3.26C197.959 3.75 197.829 4.205 197.569 4.625C197.319 5.035 196.969 5.36 196.519 5.6C197.049 5.78 197.489 6.11 197.839 6.59C198.189 7.07 198.364 7.6 198.364 8.18C198.364 8.7 198.234 9.18 197.974 9.62C197.714 10.06 197.369 10.4 196.939 10.64C196.719 10.76 196.474 10.85 196.204 10.91C195.934 10.97 195.574 11 195.124 11H190.744V0.559999H194.914C195.574 0.559999 196.099 0.659999 196.489 0.859999ZM196.249 5.165C196.609 4.985 196.894 4.725 197.104 4.385C197.314 4.045 197.419 3.67 197.419 3.26C197.419 2.8 197.299 2.4 197.059 2.06C196.819 1.71 196.514 1.455 196.144 1.295C195.864 1.175 195.394 1.115 194.734 1.115H191.284V5.405H195.004C195.524 5.405 195.939 5.325 196.249 5.165ZM196.609 10.22C196.979 10.03 197.274 9.755 197.494 9.395C197.714 9.025 197.824 8.625 197.824 8.195C197.824 7.745 197.709 7.34 197.479 6.98C197.249 6.61 196.939 6.335 196.549 6.155C196.249 6.015 195.844 5.945 195.334 5.945H191.284V10.46H195.139C195.519 10.46 195.819 10.44 196.039 10.4C196.259 10.36 196.449 10.3 196.609 10.22ZM204.367 0.335C205.147 0.335 205.867 0.529999 206.527 0.919999C207.187 1.3 207.707 1.82 208.087 2.48C208.477 3.14 208.672 3.86 208.672 4.64V6.92C208.672 7.7 208.477 8.42 208.087 9.08C207.707 9.74 207.187 10.265 206.527 10.655C205.867 11.035 205.147 11.225 204.367 11.225C203.587 11.225 202.867 11.035 202.207 10.655C201.547 10.265 201.022 9.74 200.632 9.08C200.252 8.42 200.062 7.7 200.062 6.92V4.64C200.062 3.86 200.252 3.14 200.632 2.48C201.022 1.82 201.547 1.3 202.207 0.919999C202.867 0.529999 203.587 0.335 204.367 0.335ZM200.617 6.92C200.617 7.6 200.782 8.23 201.112 8.81C201.452 9.38 201.907 9.835 202.477 10.175C203.057 10.505 203.687 10.67 204.367 10.67C205.047 10.67 205.672 10.505 206.242 10.175C206.822 9.835 207.277 9.38 207.607 8.81C207.947 8.23 208.117 7.6 208.117 6.92V4.64C208.117 3.96 207.947 3.335 207.607 2.765C207.277 2.185 206.822 1.73 206.242 1.4C205.672 1.06 205.047 0.89 204.367 0.89C203.687 0.89 203.057 1.06 202.477 1.4C201.907 1.73 201.452 2.185 201.112 2.765C200.782 3.335 200.617 3.96 200.617 4.64V6.92ZM210.131 0.559999H210.686V7.01C210.686 7.67 210.851 8.28 211.181 8.84C211.511 9.4 211.956 9.845 212.516 10.175C213.076 10.505 213.686 10.67 214.346 10.67C215.006 10.67 215.616 10.505 216.176 10.175C216.736 9.845 217.181 9.4 217.511 8.84C217.841 8.28 218.006 7.67 218.006 7.01V0.559999H218.561V7.01C218.561 7.77 218.371 8.475 217.991 9.125C217.611 9.765 217.096 10.275 216.446 10.655C215.806 11.035 215.106 11.225 214.346 11.225C213.586 11.225 212.881 11.035 212.231 10.655C211.591 10.275 211.081 9.765 210.701 9.125C210.321 8.475 210.131 7.77 210.131 7.01V0.559999ZM228.539 0.559999V1.115H224.594V11H224.054V1.115H220.109V0.559999H228.539ZM78.2992 20.56V21.115H74.3542V31H73.8142V21.115H69.8692V20.56H78.2992ZM80.0427 31V20.56H80.5977V25.495H87.5277V20.56H88.0827V31H87.5277V26.05H80.5977V31H80.0427ZM90.4412 20.56H97.7912V21.115H90.9962V25.345H96.9062V25.9H90.9962V30.445H97.7912V31H90.4412V20.56ZM117.673 28.855C117.403 29.545 116.913 30.115 116.203 30.565C115.493 31.005 114.733 31.225 113.923 31.225C113.143 31.225 112.423 31.03 111.763 30.64C111.103 30.25 110.578 29.715 110.188 29.035C109.808 28.345 109.618 27.59 109.618 26.77V24.67C109.618 23.87 109.808 23.14 110.188 22.48C110.578 21.82 111.098 21.3 111.748 20.92C112.408 20.53 113.133 20.335 113.923 20.335C114.573 20.335 115.168 20.445 115.708 20.665C116.248 20.875 116.708 21.185 117.088 21.595C117.398 21.935 117.648 22.315 117.838 22.735C118.038 23.155 118.138 23.58 118.138 24.01H117.598C117.588 23.64 117.493 23.275 117.313 22.915C117.143 22.555 116.923 22.23 116.653 21.94C115.983 21.24 115.073 20.89 113.923 20.89C113.233 20.89 112.598 21.06 112.018 21.4C111.448 21.73 110.998 22.185 110.668 22.765C110.338 23.335 110.173 23.97 110.173 24.67V26.77C110.173 27.5 110.338 28.165 110.668 28.765C111.008 29.355 111.463 29.82 112.033 30.16C112.613 30.5 113.243 30.67 113.923 30.67C114.613 30.67 115.243 30.505 115.813 30.175C116.393 29.835 116.848 29.38 117.178 28.81C117.508 28.23 117.673 27.6 117.673 26.92V26.395H113.923V25.84H118.228V31H117.673V28.855ZM126.242 20.905C126.842 21.185 127.312 21.6 127.652 22.15C128.002 22.7 128.177 23.31 128.177 23.98C128.177 24.76 127.937 25.46 127.457 26.08C126.987 26.69 126.382 27.095 125.642 27.295L128.297 31H127.637L125.072 27.4L124.592 27.415H120.827V31H120.272V20.56H124.247C124.687 20.56 125.062 20.59 125.372 20.65C125.692 20.7 125.982 20.785 126.242 20.905ZM124.742 26.86C125.262 26.86 125.742 26.73 126.182 26.47C126.622 26.21 126.972 25.86 127.232 25.42C127.492 24.98 127.622 24.5 127.622 23.98C127.622 23.4 127.467 22.875 127.157 22.405C126.857 21.935 126.437 21.585 125.897 21.355C125.507 21.195 124.957 21.115 124.247 21.115H120.827V26.86H124.742ZM130.355 20.56H137.705V21.115H130.91V25.345H136.82V25.9H130.91V30.445H137.705V31H130.355V20.56ZM140.244 20.56L143.949 26.14L147.624 20.56H148.284L144.219 26.725V31H143.664V26.725L139.584 20.56H140.244ZM154.137 26.005C153.287 25.835 152.592 25.65 152.052 25.45C151.522 25.24 151.102 24.96 150.792 24.61C150.492 24.25 150.342 23.79 150.342 23.23C150.342 22.65 150.492 22.14 150.792 21.7C151.102 21.26 151.532 20.92 152.082 20.68C152.642 20.44 153.287 20.32 154.017 20.32C154.717 20.32 155.357 20.47 155.937 20.77C156.527 21.06 156.992 21.47 157.332 22C157.672 22.53 157.842 23.135 157.842 23.815H157.287C157.287 23.225 157.142 22.705 156.852 22.255C156.562 21.805 156.167 21.46 155.667 21.22C155.167 20.97 154.612 20.845 154.002 20.845C153.462 20.845 152.957 20.93 152.487 21.1C152.017 21.27 151.632 21.53 151.332 21.88C151.042 22.23 150.897 22.67 150.897 23.2C150.897 23.68 151.037 24.065 151.317 24.355C151.597 24.635 151.962 24.85 152.412 25C152.862 25.15 153.492 25.31 154.302 25.48C155.122 25.65 155.757 25.815 156.207 25.975C156.667 26.125 157.052 26.38 157.362 26.74C157.682 27.1 157.842 27.605 157.842 28.255C157.842 28.905 157.667 29.455 157.317 29.905C156.977 30.345 156.522 30.675 155.952 30.895C155.382 31.115 154.762 31.225 154.092 31.225C153.262 31.225 152.532 31.07 151.902 30.76C151.272 30.45 150.787 30.015 150.447 29.455C150.117 28.885 149.952 28.235 149.952 27.505H150.507C150.507 28.145 150.647 28.705 150.927 29.185C151.217 29.665 151.632 30.04 152.172 30.31C152.712 30.57 153.352 30.7 154.092 30.7C155.012 30.7 155.772 30.48 156.372 30.04C156.982 29.6 157.287 29 157.287 28.24C157.287 27.72 157.157 27.32 156.897 27.04C156.637 26.76 156.307 26.56 155.907 26.44C155.517 26.31 154.927 26.165 154.137 26.005Z" fill="#ADADAD"/>
</svg>
