<svg width="42" height="602" viewBox="0 0 42 602" fill="none" xmlns="http://www.w3.org/2000/svg">
<mask id="path-1-outside-1_1430_76" maskUnits="userSpaceOnUse" x="0.399902" y="0.23999" width="42" height="602" fill="black">
<rect fill="white" x="0.399902" y="0.23999" width="42" height="602"/>
<path d="M20.0599 325.52L16.2199 311.24H40.9999L29.7799 353H27.4399L21.1999 329.78L14.9599 353H12.6199L1.3999 311.24H3.6799L13.7599 348.86L20.0599 325.52ZM38.1199 313.46H19.0999L22.3399 325.52L28.6399 348.86L38.1199 313.46Z"/>
<path d="M5.1199 415V373.24H7.3399V392.98H35.0599V373.24H37.2799V415H35.0599V395.2H7.3399V415H5.1199Z"/>
<path d="M34.7599 435.24V437.46H22.2799V474.78H34.7599V477H7.6999V474.78H20.1199V437.46H7.6999V435.24H34.7599Z"/>
<path d="M38.0599 497.24V499.46H22.2799V539H20.1199V499.46H4.3399V497.24H38.0599Z"/>
<path d="M6.7999 559.24H36.1999V561.46H9.0199V578.38H32.6599V580.6H9.0199V598.78H36.1999V601H6.7999V559.24Z"/>
</mask>
<path d="M20.0599 325.52L16.2199 311.24H40.9999L29.7799 353H27.4399L21.1999 329.78L14.9599 353H12.6199L1.3999 311.24H3.6799L13.7599 348.86L20.0599 325.52ZM38.1199 313.46H19.0999L22.3399 325.52L28.6399 348.86L38.1199 313.46Z" fill="#F4F4F4"/>
<path d="M5.1199 415V373.24H7.3399V392.98H35.0599V373.24H37.2799V415H35.0599V395.2H7.3399V415H5.1199Z" fill="#F4F4F4"/>
<path d="M34.7599 435.24V437.46H22.2799V474.78H34.7599V477H7.6999V474.78H20.1199V437.46H7.6999V435.24H34.7599Z" fill="#F4F4F4"/>
<path d="M38.0599 497.24V499.46H22.2799V539H20.1199V499.46H4.3399V497.24H38.0599Z" fill="#F4F4F4"/>
<path d="M6.7999 559.24H36.1999V561.46H9.0199V578.38H32.6599V580.6H9.0199V598.78H36.1999V601H6.7999V559.24Z" fill="#F4F4F4"/>
<path d="M20.0599 325.52L16.2199 311.24H40.9999L29.7799 353H27.4399L21.1999 329.78L14.9599 353H12.6199L1.3999 311.24H3.6799L13.7599 348.86L20.0599 325.52ZM38.1199 313.46H19.0999L22.3399 325.52L28.6399 348.86L38.1199 313.46Z" stroke="#F4F4F4" stroke-width="1.2" mask="url(#path-1-outside-1_1430_76)"/>
<path d="M5.1199 415V373.24H7.3399V392.98H35.0599V373.24H37.2799V415H35.0599V395.2H7.3399V415H5.1199Z" stroke="#F4F4F4" stroke-width="1.2" mask="url(#path-1-outside-1_1430_76)"/>
<path d="M34.7599 435.24V437.46H22.2799V474.78H34.7599V477H7.6999V474.78H20.1199V437.46H7.6999V435.24H34.7599Z" stroke="#F4F4F4" stroke-width="1.2" mask="url(#path-1-outside-1_1430_76)"/>
<path d="M38.0599 497.24V499.46H22.2799V539H20.1199V499.46H4.3399V497.24H38.0599Z" stroke="#F4F4F4" stroke-width="1.2" mask="url(#path-1-outside-1_1430_76)"/>
<path d="M6.7999 559.24H36.1999V561.46H9.0199V578.38H32.6599V580.6H9.0199V598.78H36.1999V601H6.7999V559.24Z" stroke="#F4F4F4" stroke-width="1.2" mask="url(#path-1-outside-1_1430_76)"/>
</svg>
