<svg width="42" height="601" viewBox="0 0 42 601" fill="none" xmlns="http://www.w3.org/2000/svg">
<path fill-rule="evenodd" clip-rule="evenodd" d="M29.9008 1.95593C28.4186 1.19585 26.3892 0.8 23.7833 0.8H6.66331V41.76H24.7433C26.5299 41.76 27.9371 41.6405 28.9765 41.4095C30.0225 41.1771 30.9657 40.83 31.8088 40.3705C33.5083 39.4042 34.8573 38.0931 35.861 36.433L35.8624 36.4308C36.9035 34.7342 37.4233 32.8867 37.4233 30.88C37.4233 28.6111 36.7143 26.578 35.289 24.7674C33.8538 22.9443 32.0956 21.671 30.0106 20.9373L29.1521 20.6353L29.9551 20.2071C31.6965 19.2783 33.0633 18.0255 34.0643 16.4478C35.0647 14.8309 35.5633 13.0843 35.5633 11.2C35.5633 9.19028 35.062 7.3839 34.0632 5.77054L34.0595 5.76463C33.1012 4.15459 31.7192 2.88448 29.9008 1.95593ZM34.7434 16.8705L34.7411 16.8742C33.8083 18.3452 32.5811 19.5508 31.0652 20.4908C32.9574 21.3052 34.5758 22.5681 35.9176 24.2726C37.4523 26.222 38.2233 28.4289 38.2233 30.88C38.2233 33.0329 37.6633 35.0251 36.5448 36.8483C35.4692 38.6267 34.0195 40.0345 32.2009 41.0678L32.1949 41.0712C31.2788 41.5709 30.2629 41.9432 29.1501 42.1905C28.0295 42.4395 26.5568 42.56 24.7433 42.56H5.86331V0H23.7833C26.4571 0 28.6274 0.404031 30.2652 1.24376C32.2057 2.23462 33.7036 3.60382 34.7452 5.35229C35.8253 7.09822 36.3633 9.05088 36.3633 11.2C36.3633 13.235 35.8222 15.1278 34.7434 16.8705ZM7.54331 104.56V62H10.5633V101.54H39.6633V104.56H7.54331ZM9.76332 102.34V62.8H8.34332V103.76H38.8633V102.34H9.76332ZM19.4352 124H22.3114L39.8001 166.56H36.5347L30.8947 152.76H10.8509L5.15088 166.56H1.94649L19.4352 124ZM31.432 151.96L37.072 165.76H38.6065L21.7752 124.8H19.9714L3.14014 165.76H4.61575L10.3158 151.96H31.432ZM10.8879 150.6L20.8421 126.225L30.8602 150.6H10.8879ZM8.1414 219.728L8.13867 219.723C6.78186 217.421 6.10331 214.91 6.10331 212.2V202.36C6.10331 199.65 6.78186 197.139 8.1387 194.837C9.49312 192.538 11.3218 190.71 13.6202 189.355C15.9228 187.999 18.433 187.32 21.1433 187.32C23.9169 187.32 26.419 187.871 28.6408 188.982C30.8995 190.091 32.6948 191.636 34.0161 193.618C35.2699 195.499 35.9476 197.602 36.0512 199.92H37.4179C37.3498 197.395 36.6334 195.105 35.2696 193.04L35.2678 193.038C33.8287 190.821 31.8642 189.088 29.3644 187.838L29.3577 187.834C26.8996 186.547 24.1641 185.9 21.1433 185.9C18.1742 185.9 15.4244 186.641 12.8867 188.124C10.3864 189.609 8.39504 191.62 6.90906 194.161C5.46563 196.658 4.74331 199.389 4.74331 202.36V212.2C4.74331 215.169 5.4846 217.919 6.96805 220.457C8.45293 222.957 10.4635 224.949 13.0052 226.435C15.5433 227.919 18.2936 228.66 21.2633 228.66C24.3268 228.66 27.0835 228.032 29.5416 226.784C32.0437 225.493 33.9882 223.759 35.3868 221.584L35.3878 221.582C36.7533 219.479 37.4698 217.167 37.5379 214.64H36.1712C36.0676 216.957 35.3905 219.059 34.1378 220.939C32.8557 222.924 31.079 224.47 28.8196 225.579C26.5589 226.689 24.0376 227.24 21.2633 227.24C18.5531 227.24 16.0239 226.562 13.6829 225.206L13.6802 225.205C11.3829 223.851 9.53538 222.024 8.1414 219.728ZM28.6408 188.982L28.6422 188.982L28.4633 189.34L28.6396 188.981L28.6408 188.982ZM33.4673 220.503L33.4705 220.498C34.7062 218.645 35.3446 216.56 35.3834 214.233L35.3899 213.84H38.3433V214.24C38.3433 217.075 37.5819 219.671 36.0598 222.016C34.5788 224.32 32.5238 226.146 29.9066 227.496L29.9045 227.497C27.3227 228.808 24.4396 229.46 21.2633 229.46C18.1531 229.46 15.2633 228.681 12.6014 227.125C9.9436 225.572 7.83442 223.483 6.27937 220.864L6.27799 220.862C4.72183 218.2 3.94331 215.31 3.94331 212.2V202.36C3.94331 199.252 4.70082 196.382 6.21702 193.76L6.21799 193.758C7.77181 191.1 9.86008 188.991 12.4791 187.436L12.4814 187.435C15.1433 185.879 18.0331 185.1 21.1433 185.1C24.2812 185.1 27.1447 185.773 29.7258 187.124C32.3438 188.434 34.4178 190.26 35.9379 192.601L35.9388 192.602L35.6033 192.82L35.937 192.599L35.9379 192.601C37.4618 194.908 38.2233 197.484 38.2233 200.32V200.72H35.2699L35.2634 200.327C35.2246 198 34.5862 195.915 33.3505 194.062C32.1121 192.204 30.4278 190.75 28.287 189.699L28.2844 189.698C26.1866 188.649 23.8091 188.12 21.1433 188.12C18.5736 188.12 16.2039 188.761 14.0264 190.045C11.8448 191.33 10.1135 193.061 8.82793 195.243C7.54477 197.421 6.90332 199.79 6.90332 202.36V212.2C6.90332 214.769 7.54431 217.138 8.82655 219.315L8.82523 219.312L8.48331 219.52L8.82793 219.317L8.82655 219.315C10.1521 221.497 11.9037 223.229 14.085 224.515C16.3036 225.799 18.694 226.44 21.2633 226.44C23.929 226.44 26.3277 225.911 28.467 224.861C30.6068 223.811 32.2695 222.358 33.4673 220.503ZM7.86331 248V275.696L35.6179 248H39.8714L21.9661 265.844L39.6206 290.56H35.9977L19.8326 267.976L7.86331 279.946V290.56H4.84331V248H7.86331ZM7.06331 277.624V248.8H5.64331V289.76H7.06331V279.614L19.934 266.744L36.4089 289.76H38.0661L20.9205 265.756L37.9353 248.8H35.9488L7.06331 277.624ZM29.6665 149.8L20.8445 128.335L12.0787 149.8H29.6665ZM29.4233 352.16H27.0833L20.8433 328.94L14.6033 352.16H12.2633L1.04331 310.4H3.32331L13.4033 348.02L19.7033 324.68L15.8633 310.4H40.6433L29.4233 352.16ZM18.8748 324.68L13.4062 344.94L3.93718 309.6H0L11.6499 352.96H15.2167L20.8433 332.023L26.4699 352.96H30.0367L41.6866 309.6H14.8198L18.8748 324.68ZM3.96332 414.96V371.6H7.78332V391.34H33.9033V371.6H37.7233V414.96H33.9033V395.16H7.78332V414.96H3.96332ZM6.98331 394.36H34.7033V414.16H36.9233V372.4H34.7033V392.14H6.98331V372.4H4.76331V414.16H6.98331V394.36ZM35.2033 433.6V437.42H22.7233V473.14H35.2033V476.96H6.54331V473.14H18.9633V437.42H6.54331V433.6H35.2033ZM19.7633 436.62V473.94H7.34332V476.16H34.4033V473.94H21.9233V436.62H34.4033V434.4H7.34332V436.62H19.7633ZM38.5033 495.6V499.42H22.7233V538.96H18.9633V499.42H3.18331V495.6H38.5033ZM19.7633 498.62V538.16H21.9233V498.62H37.7033V496.4H3.98331V498.62H19.7633ZM5.64331 557.6H36.6433V561.42H9.46332V576.74H33.1033V580.56H9.46332V597.14H36.6433V600.96H5.64331V557.6ZM8.66331 597.94V579.76H32.3033V577.54H8.66331V560.62H35.8433V558.4H6.44332V600.16H35.8433V597.94H8.66331ZM18.7433 312.62L21.9833 324.68L28.2833 348.02L37.7633 312.62H18.7433ZM19.7866 313.42L22.7557 324.472L28.2803 344.939L36.7209 313.42H19.7866Z" fill="#EBEBEB"/>
<path fill-rule="evenodd" clip-rule="evenodd" d="M27.0833 352.16H29.4233L40.6433 310.4H15.8633L19.7033 324.68L13.4033 348.02L3.32331 310.4H1.04331L12.2633 352.16H14.6033L20.8433 328.94L27.0833 352.16ZM18.7433 312.62L21.9833 324.68L28.2833 348.02L37.7633 312.62H18.7433Z" fill="#EBEBEB"/>
<path d="M6.98331 414.16V394.36H34.7033V414.16H36.9233V372.4H34.7033V392.14H6.98331V372.4H4.76331V414.16H6.98331Z" fill="#EBEBEB"/>
<path d="M19.7633 436.62H7.34332V434.4H34.4033V436.62H21.9233V473.94H34.4033V476.16H7.34332V473.94H19.7633V436.62Z" fill="#EBEBEB"/>
<path d="M3.98331 498.62H19.7633V538.16H21.9233V498.62H37.7033V496.4H3.98331V498.62Z" fill="#EBEBEB"/>
<path d="M8.66331 597.94H35.8433V600.16H6.44332V558.4H35.8433V560.62H8.66331V577.54H32.3033V579.76H8.66331V597.94Z" fill="#EBEBEB"/>
</svg>
